<svg width="21" height="20" viewBox="0 0 21 20" fill="none" xmlns="http://www.w3.org/2000/svg">
<path d="M17.8995 2.38574C17.871 2.36333 17.8538 2.33493 17.8479 2.30054C17.8425 2.26979 17.8492 2.24035 17.868 2.2122C18.0002 1.98555 18.0971 1.80384 18.1586 1.66706C18.2222 1.53188 18.2459 1.41168 18.2299 1.30647C18.2175 1.20082 18.1641 1.08444 18.0698 0.957318C17.9755 0.830197 17.8388 0.664795 17.6598 0.461114C17.6064 0.399237 17.6022 0.339706 17.6472 0.28252C17.6697 0.253928 17.6973 0.237644 17.7301 0.23367C17.7629 0.229696 17.7941 0.236071 17.8237 0.252796C18.0558 0.38908 18.2431 0.490148 18.3856 0.555999C18.5297 0.619808 18.6546 0.645309 18.7602 0.632503C18.8694 0.619256 18.9841 0.56563 19.1042 0.471628C19.2259 0.375583 19.3819 0.233806 19.5723 0.046297C19.6302 -0.0106125 19.6897 -0.015056 19.7508 0.0329664C19.8118 0.0809887 19.8197 0.140078 19.7743 0.210235C19.6401 0.435279 19.5412 0.615391 19.4776 0.750571C19.4161 0.887353 19.3934 1.00835 19.4094 1.11355C19.4275 1.22036 19.4837 1.33733 19.578 1.46445C19.6739 1.58953 19.8104 1.75311 19.9874 1.95519C20.0408 2.01707 20.045 2.0766 20 2.13378C19.955 2.19097 19.8921 2.19768 19.8112 2.1539C19.578 2.0233 19.3903 1.9269 19.2482 1.86469C19.1061 1.80248 18.9813 1.77698 18.8736 1.78819C18.768 1.80099 18.6552 1.8544 18.5351 1.9484C18.417 2.04401 18.2644 2.18352 18.0773 2.36694C18.0198 2.4275 17.9605 2.43376 17.8995 2.38574Z" fill="#6834B7"/>
<path d="M15.698 7.63491C15.6248 7.63491 15.562 7.61129 15.5097 7.56405C15.4627 7.52206 15.4365 7.46695 15.4313 7.39872C15.3581 6.87385 15.2849 6.46445 15.2117 6.17052C15.1437 5.87659 15.0313 5.65615 14.8745 5.50918C14.7229 5.35697 14.4928 5.23887 14.1843 5.15489C13.8759 5.07091 13.4524 4.97906 12.9138 4.87934C12.7518 4.84784 12.6707 4.75862 12.6707 4.61165C12.6707 4.53817 12.6942 4.47781 12.7413 4.43057C12.7884 4.38333 12.8459 4.35447 12.9138 4.34397C13.4524 4.27049 13.8759 4.19701 14.1843 4.12352C14.4928 4.04479 14.7229 3.92932 14.8745 3.77711C15.0313 3.61965 15.1464 3.39133 15.2196 3.09215C15.2928 2.78773 15.3633 2.36783 15.4313 1.83246C15.4522 1.66975 15.5411 1.5884 15.698 1.5884C15.8548 1.5884 15.9411 1.67238 15.9568 1.84034C16.0247 2.36521 16.0927 2.77461 16.1607 3.06853C16.2339 3.36246 16.3489 3.58291 16.5057 3.72987C16.6678 3.87683 16.9031 3.99231 17.2116 4.07628C17.5201 4.15501 17.9409 4.24424 18.4742 4.34397C18.6363 4.37546 18.7174 4.46469 18.7174 4.61165C18.7174 4.75862 18.6259 4.84784 18.4429 4.87934C17.9096 4.96332 17.4913 5.04467 17.1881 5.1234C16.8848 5.20213 16.6548 5.3176 16.4979 5.46982C16.3463 5.62203 16.2339 5.84772 16.1607 6.1469C16.0927 6.44608 16.0247 6.8581 15.9568 7.38297C15.9411 7.55093 15.8548 7.63491 15.698 7.63491Z" fill="#6834B7"/>
<path fill-rule="evenodd" clip-rule="evenodd" d="M5.15055 14.8252L5.72433 13.0763H8.71339L9.28059 14.8252H11.1035L8.00455 6.53094H6.4152L3.33333 14.8252H5.15055ZM6.16354 11.7376L7.22747 8.4948L8.27921 11.7376H6.16354Z" fill="#6834B7"/>
<path d="M13.6898 14.8252V6.53094H11.9865V14.8252H13.6898Z" fill="#6834B7"/>
</svg>
