<svg width="20" height="20" viewBox="0 0 20 20" fill="none" xmlns="http://www.w3.org/2000/svg">
<mask id="mask0_13_1280" style="mask-type:alpha" maskUnits="userSpaceOnUse" x="0" y="0" width="20" height="20">
<rect width="20" height="20" fill="#D9D9D9"/>
</mask>
<g mask="url(#mask0_13_1280)">
<path d="M9.99571 13.7916C10.148 13.7916 10.2771 13.7397 10.3828 13.6359C10.4886 13.5321 10.5415 13.4034 10.5415 13.2499V9.54158C10.5415 9.38813 10.4899 9.25949 10.3869 9.15567C10.2839 9.05185 10.1562 8.99994 10.0039 8.99994C9.85161 8.99994 9.72258 9.05185 9.61682 9.15567C9.51105 9.25949 9.45817 9.38813 9.45817 9.54158V13.2499C9.45817 13.4034 9.50968 13.5321 9.61271 13.6359C9.71574 13.7397 9.84341 13.7916 9.99571 13.7916ZM9.99542 7.74033C10.1613 7.74033 10.3018 7.68424 10.4169 7.57206C10.532 7.45987 10.5895 7.32085 10.5895 7.155C10.5895 6.98915 10.5334 6.84867 10.4213 6.73354C10.3091 6.61843 10.1701 6.56088 10.0042 6.56088C9.83835 6.56088 9.69786 6.61697 9.58275 6.72917C9.46764 6.84136 9.41009 6.98038 9.41009 7.14623C9.41009 7.31208 9.46618 7.45256 9.57838 7.56767C9.69056 7.68278 9.82957 7.74033 9.99542 7.74033ZM10.007 17.5833C8.96374 17.5833 7.98124 17.3859 7.05946 16.9912C6.13767 16.5964 5.33085 16.0533 4.639 15.3618C3.94714 14.6703 3.40376 13.8641 3.00886 12.9433C2.61396 12.0225 2.4165 11.0387 2.4165 9.99179C2.4165 8.94488 2.61387 7.964 3.00859 7.04917C3.40331 6.13432 3.94643 5.33097 4.63796 4.63913C5.3295 3.94727 6.13566 3.40388 7.05644 3.00898C7.97722 2.61408 8.96106 2.41663 10.008 2.41663C11.0549 2.41663 12.0358 2.61399 12.9506 3.00871C13.8654 3.40343 14.6688 3.94656 15.3606 4.63808C16.0525 5.32963 16.5959 6.13416 16.9908 7.05169C17.3857 7.96922 17.5831 8.94958 17.5831 9.99279C17.5831 11.036 17.3858 12.0185 16.991 12.9403C16.5963 13.8621 16.0532 14.6689 15.3617 15.3608C14.6701 16.0526 13.8656 16.596 12.9481 16.9909C12.0305 17.3858 11.0502 17.5833 10.007 17.5833ZM9.99982 16.4999C11.8054 16.4999 13.3401 15.868 14.604 14.6041C15.8679 13.3402 16.4998 11.8055 16.4998 9.99994C16.4998 8.19438 15.8679 6.65966 14.604 5.39577C13.3401 4.13188 11.8054 3.49994 9.99982 3.49994C8.19426 3.49994 6.65954 4.13188 5.39565 5.39577C4.13176 6.65966 3.49982 8.19438 3.49982 9.99994C3.49982 11.8055 4.13176 13.3402 5.39565 14.6041C6.65954 15.868 8.19426 16.4999 9.99982 16.4999Z" fill="#303030"/>
</g>
</svg>
